<svg id="Layer_1" data-name="Layer 1" xmlns="http://www.w3.org/2000/svg" width="112.92" height="40" viewBox="0 0 112.92 40"><defs><style>.cls-1{fill:#69bd45;}.cls-2{fill:#6f3e24;}.cls-3{fill:#a63422;}.cls-4{fill:#fffefe;}</style></defs><title>logo3</title><path class="cls-1" d="M556.71,503.08v6H443.79V503l.55-.62,1.46-.17,2-.27a2.36,2.36,0,0,0,.59-.11c.25,0,.51,0,.71-.33a.31.31,0,0,1,.44-.14c.6.36,1.22.08,1.85.06s1.4-.07,2.1-.16a11,11,0,0,0,2.7-.71c.5-.21,1-.44,1.5-.66a6.41,6.41,0,0,1,2.39-.62.58.58,0,0,0,.28-.07.31.31,0,0,0,.19,0,8.09,8.09,0,0,1,1.56.15c.23.05.47.08.71.12l.22.05c1.34.26,2.67.55,4,.84,2.32.51,4.63,1,6.95,1.56a4.89,4.89,0,0,0,.76.16c.07.07.18,0,.26.1l2.24.62a8.25,8.25,0,0,1,1.72.29,4,4,0,0,0,.77.14,1.06,1.06,0,0,0,.19.06l2.32.45.85.13.34.06,1.09.16c.77.09,1.54.18,2.31.25.36,0,1,.05,1.33.05h1a8.6,8.6,0,0,0,3.54-.69l.9-.26a1.73,1.73,0,0,0,.44-.14,5.49,5.49,0,0,0,.79-.15,1.3,1.3,0,0,0,.39-.09l.26,0a11.32,11.32,0,0,1,1.54-.16,3.57,3.57,0,0,0,.47,0,2,2,0,0,1,.74,0,22.68,22.68,0,0,0,2.33.08.56.56,0,0,0,.31-.06,2.57,2.57,0,0,0,.67-.25c.57-.24,1.13-.49,1.71-.7a10.93,10.93,0,0,1,4.23-.76l.84,0c.81,0,1.62,0,2.42.06.26,0,.52,0,.78,0l.78.06,1.5.07h.08l1.12.1,1,.07,1.35.15c.51.07,1,.12,1.54.2,1,.15,2,.34,3,.58l.26,0,.09.05a9.17,9.17,0,0,1,1.37.35,14.42,14.42,0,0,0,4,1.09,10.17,10.17,0,0,0,3.65-.06,1.43,1.43,0,0,0,.5-.14l.2,0a9.47,9.47,0,0,0,1.48-.48c1.84-.72,3.61-1.6,5.51-2.17l.31-.08a10.54,10.54,0,0,1,2-.33,7,7,0,0,1,3.1.52.71.71,0,0,0,.28.09.5.5,0,0,0,.21.12,1.14,1.14,0,0,1,.73.34,1.53,1.53,0,0,0,.64.48,6.6,6.6,0,0,0,.63.2,14.3,14.3,0,0,0,2.16.35q.62.07,1.23.09l.23,0c1.11,0,2.21.08,3.32.05.91,0,1.82,0,2.73-.09A.19.19,0,0,1,556.71,503.08Z" transform="translate(-443.79 -469.07)"/><path class="cls-1" d="M483.77,469.11l0,0h4.62l-.06,0-.2,0h-4.32Z" transform="translate(-443.79 -469.07)"/><path class="cls-2" d="M511.57,501.25a7.37,7.37,0,0,1-.7-1.26,6.06,6.06,0,0,1-.43-2.19c0-3.42,0-6.84,0-10.25a5.62,5.62,0,0,1,2.67-4.88,7,7,0,0,1,2.63-1.05,8.68,8.68,0,0,1,2.1-.17,8.1,8.1,0,0,1,3.44.86A6,6,0,0,1,524,485a5.67,5.67,0,0,1,.58,2.1q0,.41,0,.81c0,3.26,0,6.53,0,9.79a6,6,0,0,1-.5,2.47,5.7,5.7,0,0,1-1.71,2.21l-.2.17-.26,0c-1-.24-2-.43-3-.58-.51-.08-1-.13-1.54-.2l-1.35-.15-1-.07-1.12-.1h-.08l-1.5-.07Zm7.2-8.56v-5.2a2.25,2.25,0,0,0,0-.26,1,1,0,0,0-.56-.88,1.45,1.45,0,0,0-1.49.06,1,1,0,0,0-.48.75c0,.11,0,.23,0,.35v10.33c0,.11,0,.22,0,.32a1,1,0,0,0,.54.8,1.41,1.41,0,0,0,1.2.12,1.06,1.06,0,0,0,.79-1.07,1.47,1.47,0,0,0,0-.21Z" transform="translate(-443.79 -469.07)"/><path class="cls-2" d="M462.85,499.52a7.36,7.36,0,0,1-.27-2.09c0-3.25,0-6.51,0-9.76a6,6,0,0,1,.53-2.55,6,6,0,0,1,2.26-2.53,7.32,7.32,0,0,1,2.51-1,8.76,8.76,0,0,1,2.1-.17,8.16,8.16,0,0,1,3.29.79,6.33,6.33,0,0,1,2,1.45,5.68,5.68,0,0,1,1.46,3.88c0,3.34,0,6.68,0,10,0,.21,0,.42,0,.63a5.65,5.65,0,0,1-1.62,3.61l-.28.29A4.89,4.89,0,0,1,474,502c-2.32-.52-4.63-1.05-6.95-1.56-1.33-.29-2.66-.58-4-.84Zm8.07-6.84c0-1.71,0-3.43,0-5.14,0-.12,0-.23,0-.35a1,1,0,0,0-.57-.84,1.42,1.42,0,0,0-1.33,0,1.06,1.06,0,0,0-.64,1V498a1.07,1.07,0,0,0,.62,1,1.48,1.48,0,0,0,1.15.08,1.07,1.07,0,0,0,.78-1,2.26,2.26,0,0,0,0-.26Z" transform="translate(-443.79 -469.07)"/><path class="cls-3" d="M483.77,469.11h4.32l.2,0a.1.1,0,0,1,0,.1c0,.14-.07.28-.11.42a8.54,8.54,0,0,0-.28,1.59,23.79,23.79,0,0,0-.11,2.53c0,1,0,2.06,0,3.09s-.09,2.27-.13,3.41a19.79,19.79,0,0,0,0,2.31v.08c0,.07.05.11.11.11h.52c1,0,2.08-.05,3.12,0a14,14,0,0,1,1.44.12.15.15,0,0,1,.16.09c.18.33.43.62.64.93l.27.41a.24.24,0,0,1,0,.22c-.06.14-.11.29-.16.43a3,3,0,0,0-.18.93c0,.88,0,1.75.05,2.62s.09,1.54.14,2.31c.07,1,.06,2.08.07,3.12,0,1.57,0,3.15.08,4.73l.09,4.59a.66.66,0,0,0,0,.14,1.73,1.73,0,0,1-.44.14l-.9.26c0-1.54-.07-3.08-.13-4.62,0-1.24-.1-2.48-.15-3.72,0-1-.09-2-.14-3,0-.51,0-1-.07-1.53l-.15-2.95c0-.5-.06-1-.13-1.49a4.62,4.62,0,0,0-.24-1,.2.2,0,0,0-.21-.15h-1.82l-.31,0a.29.29,0,0,0-.24.14,1,1,0,0,0-.17.36,2.14,2.14,0,0,0-.07.43,9,9,0,0,0,0,1.47c0,.48.08,1,.09,1.44,0,1.11,0,2.22,0,3.33,0,1.67,0,3.35.05,5,0,.72,0,1.45,0,2.17l.09,4.79h-1.37v-.18l-.12-3.75c0-.71-.05-1.42-.08-2.13-.07-1.47-.11-2.95-.13-4.42,0-1.1,0-2.21,0-3.32a33.15,33.15,0,0,0-.19-3.86c0-.41-.11-.82-.18-1.23,0-.14-.05-.17-.18-.18a9.63,9.63,0,0,0-1.78,0c-.33,0-.29,0-.4.34a5.06,5.06,0,0,0-.15,1.34c0,1.19,0,2.39-.06,3.58s0,2.46,0,3.7q0,3.39,0,6.78c0,1,0,2,0,3.06l-1.09-.16-.34-.06c0-.71,0-1.43-.05-2.14-.05-1.77-.1-3.54-.14-5.31s0-3.31,0-5c0-.73,0-1.47,0-2.2s.05-1.71.12-2.56a2.9,2.9,0,0,0,0-.72,1.16,1.16,0,0,0-.21-.53.14.14,0,0,0-.14-.09,15.23,15.23,0,0,1-1.51-.21,2.19,2.19,0,0,0-.57,0c-.35,0-.43.1-.52.44a3.85,3.85,0,0,0-.11.83c0,.32,0,.63,0,.95-.05,1.11-.1,2.21-.14,3.32,0,1.41-.09,2.83-.11,4.24,0,1.62,0,3.23,0,4.85,0,1.16,0,2.33,0,3.49a4,4,0,0,1-.77-.14l-.7-.16,0-2.13c0-.86,0-1.72,0-2.57,0-1.71,0-3.41,0-5.12,0-1.24,0-2.48.07-3.72,0-.61.08-1.21.13-1.82a14.37,14.37,0,0,0,0-1.61,1.36,1.36,0,0,0-.18-.63c-.07-.11-.13-.22-.19-.33a1.55,1.55,0,0,1-.18-.51.94.94,0,0,1,.1-.7.62.62,0,0,0,.11-.61.37.37,0,0,1,.23-.1,11.22,11.22,0,0,1,1.74-.25c1-.09,2.07-.05,3.11-.06h.41c.21,0,.21,0,.22-.23.07-1.27.08-2.54.06-3.81s0-2.74-.08-4.11c0-.91,0-1.82,0-2.74q0-.31,0-.63a2.75,2.75,0,0,0-.25-.89,1.2,1.2,0,0,1-.13-.5A.86.86,0,0,1,483.77,469.11Z" transform="translate(-443.79 -469.07)"/><path class="cls-2" d="M495.27,503.11V482.37c0-.13,0-.28,0-.37s.26,0,.39,0h7.65a5.86,5.86,0,0,1,2,.33,4.58,4.58,0,0,1,3,3.41,5.76,5.76,0,0,1,.16,1.43c0,1.25,0,2.5,0,3.75a5.18,5.18,0,0,1-.46,2.16,4.57,4.57,0,0,1-2.9,2.55,5.72,5.72,0,0,1-1.36.25c-.85,0-1.69,0-2.54,0H501a.1.1,0,0,0-.11.11v6.9a.56.56,0,0,1-.31.06c-.57,0-1.15,0-1.72,0a9.39,9.39,0,0,0-1.5,0l-.32,0a11.32,11.32,0,0,0-1.54.16Zm5.65-14v2.54c0,.28,0,.25.24.25h1.22a.85.85,0,0,0,.88-.84c0-.13,0-.25,0-.38v-3.14c0-.13,0-.25,0-.38a1,1,0,0,0-.06-.3.77.77,0,0,0-.56-.5,1.75,1.75,0,0,0-.4-.05h-1.07c-.24,0-.25,0-.25.26Z" transform="translate(-443.79 -469.07)"/><path class="cls-2" d="M531.74,503.82a8.21,8.21,0,0,1-2-.58,5.3,5.3,0,0,1-3.18-4.05,7,7,0,0,1-.12-1.29v-1.16c0-.05,0-.09.09-.09h4.74a.08.08,0,0,1,.09.09,1.34,1.34,0,0,1,0,.2v.78a1.94,1.94,0,0,0,.13.71,1.46,1.46,0,0,0,1,.94,2.09,2.09,0,0,0,1.11,0,1.31,1.31,0,0,0,1-1.08,2,2,0,0,0-.47-1.86,5.57,5.57,0,0,0-.91-.84c-.63-.48-1.3-.9-2-1.33a19.67,19.67,0,0,1-2.12-1.49,8.7,8.7,0,0,1-1.38-1.4,5.4,5.4,0,0,1-1.11-2.57,6.18,6.18,0,0,1,0-1.55,6.67,6.67,0,0,1,.81-2.57,6.14,6.14,0,0,1,3.86-3,7.85,7.85,0,0,1,3.09-.23,6.18,6.18,0,0,1,3.4,1.52,5.83,5.83,0,0,1,1.83,3.2,5.7,5.7,0,0,1,.13,1.09v1c0,.07,0,.11-.1.11h-4.57c-.28,0-.26,0-.26-.27v-.78a1.53,1.53,0,0,0-.17-.72,1.26,1.26,0,0,0-1.15-.73,1.44,1.44,0,0,0-1.51,1.4,1.78,1.78,0,0,0,.31,1.12,4.15,4.15,0,0,0,.72.79,8.87,8.87,0,0,0,.78.59l1.83,1.2c.57.37,1.12.76,1.65,1.18a9.22,9.22,0,0,1,1.54,1.52,5.67,5.67,0,0,1,1.18,2.63,6.54,6.54,0,0,1,0,1.47,7,7,0,0,1-.49,2.1,6,6,0,0,1-.48.95l-.14.25a35.49,35.49,0,0,0-3.71,1.43c-.93.4-1.87.79-2.84,1.1A3.53,3.53,0,0,1,531.74,503.82Z" transform="translate(-443.79 -469.07)"/><path class="cls-2" d="M448.42,501.84l-.43-.5a6.14,6.14,0,0,1-1.26-2.91,8.52,8.52,0,0,1-.09-1.24v-9a6.79,6.79,0,0,1,.42-2.49,6,6,0,0,1,2.52-3.07,7.61,7.61,0,0,1,2.79-1,9.57,9.57,0,0,1,2.33-.11,6.82,6.82,0,0,1,2.79.78,5.54,5.54,0,0,1,2.83,3.59,7,7,0,0,1,.23,1.77v2.16a1.48,1.48,0,0,1,0,.21q0,.07-.09.09h-4.68c-.25,0-.25,0-.25-.25v-2.14a2.09,2.09,0,0,0,0-.43,1.21,1.21,0,0,0-.8-.92,2,2,0,0,0-1.41,0,1.21,1.21,0,0,0-.81,1,2.43,2.43,0,0,0,0,.38v9.94c0,.1,0,.21,0,.31a1.24,1.24,0,0,0,.92,1.11,2.08,2.08,0,0,0,1.16,0,1.28,1.28,0,0,0,1-1.25v-2.42c0-.1,0-.11.13-.12h4.73c.16,0,.17,0,.17.17,0,.83,0,1.66,0,2.49a5.28,5.28,0,0,1-.15,1.25.58.58,0,0,1-.28.07,6.41,6.41,0,0,0-2.39.62c-.5.22-1,.45-1.5.66a11,11,0,0,1-2.7.71c-.7.09-1.4.14-2.1.16a4.52,4.52,0,0,0-.63.08l-2.08.31A2.83,2.83,0,0,1,448.42,501.84Z" transform="translate(-443.79 -469.07)"/><path class="cls-2" d="M544.63,501.33V487.12c0-.44.06-.39-.38-.39h-3.47a.11.11,0,0,1-.09-.1v-4.36c0-.35,0-.31.3-.31h13c.36,0,.33,0,.33.32v4.13c0,.34,0,.32-.33.32h-3.56s-.09,0-.09.09v16.1c-.58-.05-1.17-.08-1.75-.15a12.35,12.35,0,0,1-1.7-.3c-.2-.05-.4-.12-.6-.19a1.14,1.14,0,0,1-.31-.16,10.42,10.42,0,0,0-1.16-.69A.71.71,0,0,1,544.63,501.33Z" transform="translate(-443.79 -469.07)"/><path class="cls-2" d="M494.3,475.86a.38.38,0,0,0-.11.23c-.22,1.26-.5,2.5-.77,3.76-.07.35,0,.3-.38.31h-.88c-.29-1.43-.57-2.84-.81-4.27-.08.05-.05.1-.05.15a.65.65,0,0,0,0,.14v3.62a2.09,2.09,0,0,1,0,.25.1.1,0,0,1-.11.11h-1.07a1.41,1.41,0,0,1-.54,0,2.18,2.18,0,0,1,0-.51v-6.73c0-.07.05-.11.11-.11h2.4l.05,0c.13.63.27,1.27.39,1.91s.25,1.26.4,1.89l.18-1c.18-.89.35-1.78.52-2.67,0,0,0-.05,0-.08a.1.1,0,0,1,.1-.08h2.37a.09.09,0,0,1,.1.08V480c0,.17,0,.19-.18.19h-1.58c-.11,0-.13,0-.13-.12a1.76,1.76,0,0,1,0-.23v-3.95Z" transform="translate(-443.79 -469.07)"/><path class="cls-2" d="M512.34,476.84v3.06c0,.27,0,.26-.25.26h-1.41a.08.08,0,0,1-.08-.07v-7c0-.31,0-.29.28-.29h1.24a.23.23,0,0,1,.24.16c.27.64.55,1.27.83,1.9l.48,1.09a.41.41,0,0,0,.14.22c0-.06,0-.12,0-.19v-2.83c0-.39,0-.34.36-.35h1.3a.07.07,0,0,1,.07.08,1.27,1.27,0,0,1,0,.2v6.82c0,.3,0,.28-.28.28s-.77,0-1.16,0a.23.23,0,0,1-.24-.15c-.22-.49-.46-1-.69-1.47s-.46-1-.7-1.49a2.26,2.26,0,0,0-.11-.22Z" transform="translate(-443.79 -469.07)"/><path class="cls-2" d="M506.24,476.6c0,.06.12.08.18.13a1.17,1.17,0,0,1,.54,1c0,.35,0,.7,0,1a3.22,3.22,0,0,0,.17,1.11,1,1,0,0,1,.05.16c0,.06,0,.09-.07.1H507c-.42,0-.85,0-1.27,0a.41.41,0,0,1-.44-.3,2.18,2.18,0,0,1-.14-.84c0-.36,0-.72,0-1.07a2.58,2.58,0,0,0,0-.29.39.39,0,0,0-.41-.33c-.48,0-.41-.08-.41.38v2.13a1.69,1.69,0,0,1,0,.23.07.07,0,0,1-.07.08h-1.76c-.09,0-.11,0-.12-.13v-7a.61.61,0,0,1,0-.14.08.08,0,0,1,.09-.09h2.63a2,2,0,0,1,.92.21,1.59,1.59,0,0,1,.94,1.5c0,.32,0,.65,0,1a1.16,1.16,0,0,1-.53,1C506.34,476.51,506.26,476.52,506.24,476.6Zm-1.95-1.49h0v.46c0,.48-.08.4.44.41h.08c.17,0,.24-.09.26-.26a1.41,1.41,0,0,0,0-.2v-.75a.91.91,0,0,0,0-.17c0-.21-.1-.3-.31-.31h-.37c-.07,0-.1,0-.1.11Z" transform="translate(-443.79 -469.07)"/><path class="cls-2" d="M498.13,472.79h2.11c.15,0,.16,0,.19.15l.63,3.23.72,3.74c.05.26.05.26-.2.26H500c-.09,0-.12,0-.13-.12s-.05-.42-.07-.64-.05-.27-.31-.27h-.67c-.18,0-.21,0-.24.19s-.07.42-.1.63,0,.21-.25.21h-1.39l-.16,0Q497.39,476.47,498.13,472.79Zm1.43,4.95-.3-2.32a20.23,20.23,0,0,0-.39,2.33C499.09,477.75,499.3,477.76,499.56,477.74Z" transform="translate(-443.79 -469.07)"/><path class="cls-2" d="M507.78,476.44V473c0-.26,0-.26.25-.26h1.48c.23,0,.23,0,.23.25v6.81c0,.36,0,.33-.32.33h-1.5c-.11,0-.13,0-.14-.15v-3.57Z" transform="translate(-443.79 -469.07)"/><path class="cls-2" d="M468.35,473.14a.28.28,0,0,1,0,.18c-.09.55-1.34,6.61-1.4,6.81a.34.34,0,0,1-.2,0h-1.18c-.18,0-.19,0-.22-.17-.15-.84-.31-1.68-.46-2.52,0-.12-.05-.25-.08-.38a.36.36,0,0,0-.09.21c-.16.85-.31,1.7-.47,2.55,0,.09-.05.19-.06.27a.34.34,0,0,1-.21,0h-1.19c-.13,0-.14,0-.16-.15-.12-.54-.23-1.09-.34-1.63l-.9-4.39c-.05-.2-.09-.41-.13-.62a.36.36,0,0,1,0-.23l.08,0h1.53c.13,0,.15,0,.17.15.12.74.24,1.48.35,2.22.07.4.13.8.19,1.2a.17.17,0,0,0,.09.15l.12-.73.42-2.74a1.36,1.36,0,0,1,0-.17.09.09,0,0,1,.1-.08h1.07c.08,0,.11.05.12.13.05.34.11.68.16,1,.12.8.24,1.6.37,2.4,0,.07,0,.13.06.25a7.64,7.64,0,0,0,.15-.79c.16-.95.31-1.9.46-2.85,0-.15,0-.16.16-.16h1.39Z" transform="translate(-443.79 -469.07)"/><path class="cls-2" d="M476,475.24V475a.63.63,0,0,0,0-.19.41.41,0,0,0-.45-.33.47.47,0,0,0-.43.36.61.61,0,0,0,.08.44,1.16,1.16,0,0,0,.26.28l.49.36.6.4a3.94,3.94,0,0,1,.56.45,2.1,2.1,0,0,1-1.13,3.56,2.75,2.75,0,0,1-1.45-.12,1.76,1.76,0,0,1-1.22-1.54,3.62,3.62,0,0,1,0-.57c0-.07,0-.11.1-.11h1.36c.13,0,.14,0,.15.15a1.77,1.77,0,0,0,0,.23.54.54,0,0,0,.69.51.4.4,0,0,0,.33-.28.63.63,0,0,0-.09-.63,1.42,1.42,0,0,0-.35-.34l-.64-.44c-.19-.13-.39-.25-.57-.39a3.8,3.8,0,0,1-.37-.33,1.87,1.87,0,0,1-.5-1.83A2.06,2.06,0,0,1,475.1,473a2.53,2.53,0,0,1,1.06.06,1.89,1.89,0,0,1,1.39,1.63,2.69,2.69,0,0,1,0,.49.1.1,0,0,1-.07.08H476Z" transform="translate(-443.79 -469.07)"/><path class="cls-2" d="M468.82,476.64v-3.33c0-.18,0-.19.2-.19h3.66l.06.06a.27.27,0,0,1,0,.09c0,.41,0,.82,0,1.24,0,.13,0,.15-.15.15H470.8c-.11,0-.13,0-.13.14v.92c0,.15,0,.16.17.16h1c.1,0,.13,0,.13.11v1.13a.08.08,0,0,1-.09.09h-.87c-.44,0-.38-.06-.38.38v.78c0,.11,0,.14.14.14h1.79c.12,0,.14,0,.14.13,0,.46,0,.93,0,1.39,0,.09,0,.11-.12.12H469c-.11,0-.12,0-.13-.15v-3.37Z" transform="translate(-443.79 -469.07)"/><path class="cls-2" d="M481,477.42v2.42a1.69,1.69,0,0,1,0,.23c0,.05,0,.08-.07.08h-1.64c-.1,0-.12,0-.13-.12v-5c0-.36,0-.33-.32-.33H478c-.1,0-.12,0-.12-.12v-1.33c0-.09,0-.11.12-.12h4c.25,0,.26,0,.26.25v1.18c0,.12,0,.14-.14.14h-1c-.07,0-.11,0-.11.1v2.63Z" transform="translate(-443.79 -469.07)"/><path class="cls-4" d="M504.29,475.11v-.72c0-.07,0-.11.1-.11h.37c.21,0,.29.1.31.31a.91.91,0,0,1,0,.17v.75a1.41,1.41,0,0,1,0,.2c0,.17-.09.23-.26.26h-.08c-.52,0-.43.07-.44-.41v-.46Z" transform="translate(-443.79 -469.07)"/><path class="cls-4" d="M499.56,477.74c-.26,0-.47,0-.69,0a20.23,20.23,0,0,1,.39-2.33Z" transform="translate(-443.79 -469.07)"/></svg>