<svg id="Layer_1" data-name="Layer 1" xmlns="http://www.w3.org/2000/svg" width="265.42" height="116" viewBox="0 0 265.42 116"><defs><style>.cls-1{fill:#69bd45;}.cls-2{fill:#6f3e24;}.cls-3{fill:#a63422;}.cls-4{fill:#fffefe;}</style></defs><title>logo2</title><path class="cls-1" d="M633,521.52v36.54H367.54V520.57l.8-.12,3.91-.47c1.6-.21,3.19-.41,4.78-.64a5.08,5.08,0,0,0,1.39-.25c.23,0,.45,0,.68,0l4.89-.75a12.19,12.19,0,0,1,1.48-.17c1.65-.06,3.29-.18,4.93-.39a26.22,26.22,0,0,0,6.34-1.66c1.19-.49,2.36-1,3.54-1.56a15.37,15.37,0,0,1,5.61-1.45,1.4,1.4,0,0,0,.66-.16.78.78,0,0,0,.45.09,18.05,18.05,0,0,1,3.67.36c.55.1,1.1.18,1.66.27l.52.13c3.15.59,6.29,1.27,9.42,2,5.44,1.21,10.88,2.46,16.32,3.68a13.53,13.53,0,0,0,1.79.37.83.83,0,0,0,.38.14l7.9,1.86c.55.12,1.09.26,1.65.37a11.79,11.79,0,0,0,1.79.34c.15,0,.29.11.44.14,1.82.35,3.64.71,5.46,1,.66.12,1.34.2,2,.3l.79.14,2.58.39c1.46.16,2.91.33,4.38.47,1.1.11,2.2.21,3.31.22h3.24a20.43,20.43,0,0,0,8.31-1.62l2.12-.62a4.64,4.64,0,0,0,1-.32,14.89,14.89,0,0,0,1.86-.36,2.93,2.93,0,0,0,.92-.21l.6-.06a29.73,29.73,0,0,1,3.64-.37,6.19,6.19,0,0,0,.74,0,20.69,20.69,0,0,1,3.52,0c1.35.08,2.7.07,4.06.09a1.78,1.78,0,0,0,.72-.14,7.4,7.4,0,0,0,1.59-.59c1.32-.58,2.65-1.16,4-1.66a26.05,26.05,0,0,1,9.95-1.79l2,.06c1.9,0,3.8,0,5.7.15.61,0,1.22,0,1.83,0s1.21.1,1.82.13l3.52.17.21,0,2.63.22c.74.06,1.49.1,2.23.18,1.06.11,2.11.23,3.16.36,1.21.15,2.43.28,3.63.46,2.37.37,4.73.8,7.06,1.36l.6.1a2.53,2.53,0,0,0,.23.12c2.18.54,4.31,1.21,6.45,1.88a37.17,37.17,0,0,0,8.08,1.72,21.89,21.89,0,0,0,6.61-.35,3.68,3.68,0,0,0,1.17-.35,7.27,7.27,0,0,0,1.51-.38,70.28,70.28,0,0,0,6.68-2.58,82,82,0,0,1,8.71-3.36l.72-.18a24.56,24.56,0,0,1,4.74-.78,16.37,16.37,0,0,1,7.29,1.23,1.67,1.67,0,0,0,.64.21,2.54,2.54,0,0,0,.34.23,22.87,22.87,0,0,1,2.73,1.63,2.89,2.89,0,0,0,.72.37c.47.17.94.32,1.42.45a28.36,28.36,0,0,0,4,.7c1.36.17,2.74.25,4.11.35l.4,0c2.6.09,5.19.18,7.79.11C628.36,521.7,630.67,521.69,633,521.52Z" transform="translate(-367.54 -442.06)"/><path class="cls-1" d="M461.51,442.14l-.11-.08h10.87l-.15.08c-.15,0-.31,0-.47,0h-9.6Z" transform="translate(-367.54 -442.06)"/><path class="cls-2" d="M526.86,517.71a16.77,16.77,0,0,1-1.64-3,13.67,13.67,0,0,1-1-5.16c0-8-.05-16.07,0-24.1A13.27,13.27,0,0,1,530.49,474a16.81,16.81,0,0,1,6.19-2.47,20.92,20.92,0,0,1,4.93-.39,18.94,18.94,0,0,1,8.09,2,13.94,13.94,0,0,1,6.28,6.26,13.14,13.14,0,0,1,1.35,4.94c0,.64.07,1.27.07,1.9v23a14.18,14.18,0,0,1-1.18,5.81,13.54,13.54,0,0,1-4,5.2c-.16.12-.31.26-.46.39l-.6-.1c-2.33-.56-4.69-1-7.06-1.36-1.2-.18-2.42-.31-3.63-.46-1-.13-2.1-.25-3.16-.36-.74-.08-1.49-.12-2.23-.18l-2.63-.22-.21,0-3.52-.17C528.07,517.81,527.47,517.75,526.86,517.71Zm16.93-20.13V485.37c0-.21,0-.41,0-.61a2.36,2.36,0,0,0-1.33-2.07,3.33,3.33,0,0,0-3.48.13,2.31,2.31,0,0,0-1.14,1.76,7.32,7.32,0,0,0,0,.81q0,12.15,0,24.3a6.28,6.28,0,0,0,0,.75,2.37,2.37,0,0,0,1.28,1.89,3.38,3.38,0,0,0,2.81.28,2.54,2.54,0,0,0,1.87-2.54V497.58Z" transform="translate(-367.54 -442.06)"/><path class="cls-2" d="M412.33,513.63a17.62,17.62,0,0,1-.62-4.9q0-11.48,0-23a14.07,14.07,0,0,1,1.26-6,13.75,13.75,0,0,1,5.31-5.94,17.27,17.27,0,0,1,5.91-2.29,20.92,20.92,0,0,1,4.93-.39,19.32,19.32,0,0,1,7.73,1.84,14.77,14.77,0,0,1,4.6,3.43,13.28,13.28,0,0,1,3.45,9.12q0,11.77,0,23.56c0,.5,0,1,0,1.49a13.38,13.38,0,0,1-3.8,8.49l-.67.68a13.53,13.53,0,0,1-1.79-.37c-5.44-1.22-10.88-2.47-16.32-3.68-3.13-.69-6.27-1.37-9.42-2Zm19-16.08V485.47q0-.41,0-.81a2.38,2.38,0,0,0-1.35-2,3.34,3.34,0,0,0-3.13,0,2.5,2.5,0,0,0-1.5,2.32v25.18a2.5,2.5,0,0,0,1.46,2.28,3.43,3.43,0,0,0,2.7.19,2.54,2.54,0,0,0,1.84-2.42c0-.2,0-.41,0-.61Z" transform="translate(-367.54 -442.06)"/><path class="cls-3" d="M461.51,442.14l.54,0h9.6c.16,0,.32,0,.47,0a.18.18,0,0,1,.1.22c-.08.33-.17.66-.26,1a21.43,21.43,0,0,0-.66,3.73c-.19,2-.24,4-.25,6,0,2.42,0,4.84-.05,7.26-.06,2.67-.2,5.33-.3,8a51.55,51.55,0,0,0,.06,5.42c0,.07,0,.14,0,.21a.23.23,0,0,0,.25.25l1.22,0c2.44-.05,4.89-.11,7.33-.05,1.13,0,2.26.15,3.38.28a.44.44,0,0,1,.39.23,21.47,21.47,0,0,0,1.5,2.17c.22.31.41.65.63,1a.52.52,0,0,1,0,.51c-.13.34-.24.68-.37,1a6.81,6.81,0,0,0-.42,2.19,60.5,60.5,0,0,0,.12,6.17c.11,1.8.21,3.61.33,5.41.17,2.44.14,4.89.17,7.33,0,3.71.12,7.42.19,11.13s.13,7.19.2,10.78c0,.12,0,.23,0,.34a4.64,4.64,0,0,1-1,.32l-2.12.62c-.1-3.62-.18-7.24-.3-10.86-.1-2.92-.23-5.84-.36-8.75q-.15-3.54-.32-7.06c-.05-1.2-.11-2.39-.18-3.59-.11-2.31-.24-4.61-.36-6.92-.06-1.17-.12-2.35-.28-3.52a12,12,0,0,0-.58-2.43.45.45,0,0,0-.49-.36h-4.27c-.25,0-.5.06-.75.07a.73.73,0,0,0-.55.35,2.46,2.46,0,0,0-.4.85,5.67,5.67,0,0,0-.18,1,23.49,23.49,0,0,0,.08,3.46c.08,1.13.18,2.26.2,3.39.05,2.6,0,5.2,0,7.81,0,3.94,0,7.87.12,11.81,0,1.7.05,3.4.08,5.09l.24,11.27h-3.24c0-.14,0-.27,0-.41q-.13-4.41-.29-8.82c0-1.67-.1-3.34-.18-5-.16-3.46-.25-6.92-.31-10.38-.05-2.6,0-5.2,0-7.81a80.77,80.77,0,0,0-.44-9.07c-.1-1-.27-1.93-.42-2.89-.05-.33-.12-.39-.42-.42a22.68,22.68,0,0,0-4.2-.08c-.77.07-.68-.09-.93.79a11.66,11.66,0,0,0-.35,3.16c0,2.81-.09,5.61-.14,8.42s-.07,5.79-.07,8.68q0,8,0,16c0,2.39.05,4.79.07,7.19l-2.58-.39L460,524c-.05-1.67-.09-3.35-.13-5-.11-4.16-.24-8.32-.33-12.48-.09-3.89-.09-7.78-.06-11.67,0-1.72.05-3.44.09-5.16.06-2,.12-4,.29-6a6.83,6.83,0,0,0-.09-1.69,3,3,0,0,0-.49-1.25.43.43,0,0,0-.33-.21,32.4,32.4,0,0,1-3.56-.48,5.13,5.13,0,0,0-1.35-.1c-.82.09-1,.24-1.21,1a9.15,9.15,0,0,0-.26,1.95c0,.75,0,1.49-.06,2.24-.1,2.6-.23,5.2-.31,7.8-.11,3.32-.22,6.64-.27,10q-.1,5.7,0,11.4c.07,2.73.08,5.47.12,8.21a11.79,11.79,0,0,1-1.79-.34c-.56-.11-1.1-.25-1.65-.37,0-1.67-.05-3.35-.08-5,0-2-.07-4-.12-6-.1-4-.09-8-.09-12,0-2.92.08-5.83.17-8.75,0-1.43.18-2.85.29-4.27a30.09,30.09,0,0,0,.08-3.8,3.1,3.1,0,0,0-.43-1.48l-.44-.76a4.07,4.07,0,0,1-.43-1.21,2.33,2.33,0,0,1,.25-1.64,1.45,1.45,0,0,0,.25-1.43.8.8,0,0,1,.53-.24,28.2,28.2,0,0,1,4.09-.6c2.44-.19,4.89-.12,7.33-.14H461c.5,0,.5,0,.53-.54.15-3,.17-6,.13-9,0-3.21-.08-6.42-.17-9.64-.07-2.15,0-4.29-.08-6.44a14.71,14.71,0,0,0-.09-1.49,6,6,0,0,0-.57-2.08,2.79,2.79,0,0,1-.31-1.17A2,2,0,0,1,461.51,442.14Z" transform="translate(-367.54 -442.06)"/><path class="cls-2" d="M488.54,522.07c0-.25,0-.5,0-.75v-48c0-.29-.11-.65.07-.85s.59-.1.9-.1h18a13.72,13.72,0,0,1,4.79.79,10.75,10.75,0,0,1,7.11,8,13.72,13.72,0,0,1,.38,3.37c0,2.94,0,5.88,0,8.82a12.36,12.36,0,0,1-1.08,5.08,10.74,10.74,0,0,1-6.82,6,12.46,12.46,0,0,1-3.2.59c-2,.1-4,0-6,0h-.61a.23.23,0,0,0-.26.25v16.23a1.78,1.78,0,0,1-.72.14c-1.36,0-2.71,0-4.06-.09a20.69,20.69,0,0,0-3.52,0,6.19,6.19,0,0,1-.74,0,29.73,29.73,0,0,0-3.64.37Zm13.28-32.94c0,2,0,4,0,6,0,.66,0,.61.58.61h1.16c.56,0,1.13,0,1.69,0a2,2,0,0,0,2.09-2c0-.29,0-.58,0-.88v-7.39c0-.3,0-.59,0-.88a2.22,2.22,0,0,0-.16-.73,1.74,1.74,0,0,0-1.3-1.16,3.38,3.38,0,0,0-.95-.11h-2.51c-.55,0-.6-.05-.6.59C501.82,485.15,501.82,487.14,501.82,489.13Z" transform="translate(-367.54 -442.06)"/><path class="cls-2" d="M574.26,523.73a18.29,18.29,0,0,1-4.75-1.35,12.5,12.5,0,0,1-7.47-9.52,16.22,16.22,0,0,1-.28-3v-2.24c0-.16,0-.31,0-.47a.21.21,0,0,1,.21-.22h11.14a.19.19,0,0,1,.21.21,3.65,3.65,0,0,1,0,.47c0,.61,0,1.22,0,1.83a4.45,4.45,0,0,0,.31,1.66,3.49,3.49,0,0,0,2.4,2.22,4.73,4.73,0,0,0,2.61,0,3.06,3.06,0,0,0,2.26-2.53,4.8,4.8,0,0,0-1.1-4.37,13.44,13.44,0,0,0-2.15-2c-1.47-1.12-3-2.11-4.61-3.11a49.22,49.22,0,0,1-5-3.51,20.45,20.45,0,0,1-3.23-3.28,12.78,12.78,0,0,1-2.6-6,14.46,14.46,0,0,1,0-3.66,15.5,15.5,0,0,1,1.92-6,14.43,14.43,0,0,1,9.06-7,18.53,18.53,0,0,1,7.26-.53,14.42,14.42,0,0,1,8,3.57,13.7,13.7,0,0,1,4.31,7.52,13.06,13.06,0,0,1,.3,2.56c0,.79,0,1.58,0,2.38a.22.22,0,0,1-.24.25H582.1c-.66,0-.62,0-.62-.63v-1.83a3.64,3.64,0,0,0-.4-1.71,3,3,0,0,0-2.71-1.71,3.39,3.39,0,0,0-3.54,3.28,4.19,4.19,0,0,0,.73,2.64,9,9,0,0,0,1.68,1.85,20.74,20.74,0,0,0,1.84,1.4q2.14,1.42,4.31,2.83c1.33.87,2.63,1.76,3.87,2.75a22.17,22.17,0,0,1,3.61,3.57,13.35,13.35,0,0,1,2.78,6.19,14.74,14.74,0,0,1,.13,3.45,16.85,16.85,0,0,1-1.15,4.94,17.4,17.4,0,0,1-1.13,2.24c-.12.19-.23.39-.34.58a82,82,0,0,0-8.71,3.36,70.28,70.28,0,0,1-6.68,2.58A7.27,7.27,0,0,1,574.26,523.73Z" transform="translate(-367.54 -442.06)"/><path class="cls-2" d="M378.42,519.09c-.34-.4-.69-.78-1-1.19a14.37,14.37,0,0,1-3-6.83,19,19,0,0,1-.21-2.91V486.9a16.5,16.5,0,0,1,1-5.86,14.32,14.32,0,0,1,5.93-7.2,18,18,0,0,1,6.57-2.45,22.33,22.33,0,0,1,5.48-.24,16.16,16.16,0,0,1,6.55,1.81,13.06,13.06,0,0,1,6.65,8.44,16.2,16.2,0,0,1,.53,4.16v5.09c0,.16,0,.32,0,.48a.2.2,0,0,1-.21.21h-11c-.59,0-.6,0-.6-.59,0-1.68,0-3.35,0-5a4.94,4.94,0,0,0-.1-1,2.88,2.88,0,0,0-1.87-2.16,4.63,4.63,0,0,0-3.32,0,2.85,2.85,0,0,0-1.91,2.43,6.51,6.51,0,0,0-.06.88v23.36a6.28,6.28,0,0,0,0,.75,2.89,2.89,0,0,0,2.16,2.59,4.73,4.73,0,0,0,2.74,0,3,3,0,0,0,2.31-2.91c0-.19,0-.37,0-.55,0-1.54,0-3.08,0-4.62,0-.18,0-.36,0-.54s.05-.25.29-.27h11.14c.37,0,.38,0,.38.4,0,1.94,0,3.89,0,5.84a12.8,12.8,0,0,1-.36,2.95,1.4,1.4,0,0,1-.66.16,15.37,15.37,0,0,0-5.61,1.45c-1.18.52-2.35,1.07-3.54,1.56a26.22,26.22,0,0,1-6.34,1.66c-1.64.21-3.28.33-4.93.39a12.19,12.19,0,0,0-1.48.17l-4.89.75C378.87,519.08,378.65,519.07,378.42,519.09Z" transform="translate(-367.54 -442.06)"/><path class="cls-2" d="M604.55,517.89c0-.24,0-.49,0-.74q0-16.33,0-32.67c0-1,.15-.91-.89-.91h-8.15a.21.21,0,0,1-.21-.22c0-.18,0-.36,0-.54v-9.71c0-.82-.07-.73.72-.73h30.42c.85,0,.78-.1.78.74v9.72c0,.8.07.75-.79.75h-8.35a.2.2,0,0,0-.21.21c0,.16,0,.32,0,.47v36.88c0,.16,0,.32,0,.48-1.37-.1-2.75-.18-4.11-.35a28.36,28.36,0,0,1-4-.7c-.48-.13-1-.28-1.42-.45a2.89,2.89,0,0,1-.72-.37,22.87,22.87,0,0,0-2.73-1.63A2.54,2.54,0,0,1,604.55,517.89Z" transform="translate(-367.54 -442.06)"/><path class="cls-2" d="M486.25,458a1.05,1.05,0,0,0-.24.54c-.52,3-1.18,5.9-1.81,8.84-.17.82,0,.73-.9.73h-2.06c-.69-3.35-1.35-6.67-1.91-10-.19.12-.11.25-.13.36s0,.23,0,.34v8.49c0,.2,0,.41,0,.61s-.1.24-.26.24c-.84,0-1.67,0-2.51,0a3.2,3.2,0,0,1-1.27-.08,4.47,4.47,0,0,1,0-1.21V451a.23.23,0,0,1,.26-.24l5.64,0,.12,0c.3,1.47.62,3,.92,4.48s.57,3,.93,4.44c.15-.77.28-1.55.43-2.33q.62-3.12,1.22-6.26c0-.06,0-.13,0-.2a.25.25,0,0,1,.24-.19h5.57a.21.21,0,0,1,.22.21c0,.16,0,.32,0,.47v16a2.43,2.43,0,0,1,0,.27c0,.41,0,.44-.41.44h-3.74c-.23,0-.28-.06-.29-.27s0-.36,0-.54V458Z" transform="translate(-367.54 -442.06)"/><path class="cls-2" d="M528.65,460.32v7.19c0,.63,0,.61-.57.61h-3.33a.18.18,0,0,1-.17-.18c0-.16,0-.32,0-.48v-16c0-.72,0-.66.66-.66,1,0,1.94,0,2.92,0a.51.51,0,0,1,.55.38q1,2.24,2,4.47c.37.84.74,1.7,1.12,2.54a1.05,1.05,0,0,0,.32.54.72.72,0,0,0,.06-.45c0-2.22,0-4.43,0-6.65,0-.94-.11-.82.83-.82h3.06a.18.18,0,0,1,.17.18c0,.16,0,.31,0,.47v16c0,.71,0,.66-.66.66-.91,0-1.81,0-2.72,0a.52.52,0,0,1-.56-.37c-.53-1.15-1.07-2.29-1.61-3.44l-1.65-3.49-.27-.54Z" transform="translate(-367.54 -442.06)"/><path class="cls-2" d="M514.33,459.75c.1.15.28.2.42.31a2.77,2.77,0,0,1,1.26,2.41c0,.81,0,1.63,0,2.44a7.38,7.38,0,0,0,.41,2.6l.12.39c0,.13,0,.21-.18.22h-.27c-1,0-2,0-3,0a1,1,0,0,1-1-.7,5.41,5.41,0,0,1-.34-2c0-.84,0-1.68,0-2.51a3.07,3.07,0,0,0-.06-.68.93.93,0,0,0-1-.78c-1.12,0-1-.18-1,.89,0,1.67,0,3.35,0,5,0,.18,0,.36,0,.54a.18.18,0,0,1-.17.18l-.27,0h-3.86c-.21,0-.26-.07-.27-.3a2.44,2.44,0,0,1,0-.27V451.32c0-.11,0-.22,0-.34a.21.21,0,0,1,.22-.21h6.17a4.55,4.55,0,0,1,2.17.5,3.74,3.74,0,0,1,2.21,3.52c0,.77,0,1.54,0,2.31a2.65,2.65,0,0,1-1.24,2.35C514.56,459.54,514.38,459.57,514.33,459.75Zm-4.59-3.5h0c0,.37,0,.73,0,1.09,0,1.14-.18.94,1,1l.21,0a.62.62,0,0,0,.6-.62,3.65,3.65,0,0,0,0-.47c0-.59,0-1.17,0-1.76,0-.14,0-.27,0-.41,0-.49-.25-.69-.73-.72H510c-.17,0-.24.11-.24.26Z" transform="translate(-367.54 -442.06)"/><path class="cls-2" d="M495.26,450.81l.27,0h4.69c.36,0,.37,0,.44.37.49,2.53,1,5.05,1.48,7.58q.86,4.39,1.7,8.79c.12.61.13.61-.47.61h-3.73c-.21,0-.28-.07-.31-.29-.06-.49-.12-1-.17-1.48-.09-.78-.1-.64-.73-.65h-1.57c-.42,0-.5,0-.56.46s-.17,1-.23,1.47-.09.49-.61.49h-3.25c-.11,0-.22,0-.39-.05C493,462.31,494.11,456.57,495.26,450.81Zm3.37,11.63c-.25-1.84-.48-3.6-.72-5.45a47.08,47.08,0,0,0-.91,5.46C497.51,462.46,498,462.48,498.63,462.44Z" transform="translate(-367.54 -442.06)"/><path class="cls-2" d="M518,459.37v-8c0-.62,0-.6.59-.6H522c.56,0,.54,0,.54.57v16c0,.86.09.77-.75.77h-3.53c-.25,0-.29-.06-.3-.34s0-.36,0-.54Z" transform="translate(-367.54 -442.06)"/><path class="cls-2" d="M425.27,451.64a.72.72,0,0,1,0,.41c-.22,1.29-3.15,15.53-3.3,16a.84.84,0,0,1-.47.06h-2.78c-.42,0-.43,0-.5-.38-.37-2-.73-4-1.1-5.94-.05-.29-.11-.58-.17-.89a.77.77,0,0,0-.21.49q-.57,3-1.12,6c0,.22-.1.44-.14.64a.8.8,0,0,1-.49.08h-2.78c-.32,0-.33,0-.4-.33-.27-1.29-.54-2.57-.8-3.86q-1.06-5.15-2.11-10.3c-.1-.48-.21-1-.31-1.46a1.09,1.09,0,0,1,0-.54,1.29,1.29,0,0,1,.19,0h3.6c.31,0,.35,0,.4.34.28,1.74.55,3.49.83,5.23.15.94.29,1.88.44,2.82a.4.4,0,0,0,.2.36c.1-.58.2-1.15.29-1.72l1-6.44c0-.13.06-.26.09-.39a.21.21,0,0,1,.23-.19h2.51c.21,0,.27.12.29.3.13.8.26,1.61.38,2.41.29,1.88.57,3.76.86,5.64,0,.15.08.3.15.58a18.49,18.49,0,0,0,.35-1.86c.37-2.23.73-4.47,1.1-6.7,0-.34.07-.36.36-.36h3.26A.48.48,0,0,1,425.27,451.64Z" transform="translate(-367.54 -442.06)"/><path class="cls-2" d="M443.18,456.55c0-.23,0-.43,0-.63a1.84,1.84,0,0,0-.07-.47,1,1,0,0,0-1-.77,1.06,1.06,0,0,0-1,.85,1.36,1.36,0,0,0,.18,1,2.66,2.66,0,0,0,.6.65c.37.29.76.57,1.15.84l1.41.94a9.7,9.7,0,0,1,1.31,1.07,4.93,4.93,0,0,1-2.64,8.36,6.59,6.59,0,0,1-3.41-.28,4.09,4.09,0,0,1-2.86-3.61,8.72,8.72,0,0,1-.06-1.35.23.23,0,0,1,.24-.26h3.19c.31,0,.34,0,.35.36s0,.36,0,.54a1.28,1.28,0,0,0,1.61,1.21,1,1,0,0,0,.79-.66,1.51,1.51,0,0,0-.21-1.48,3.46,3.46,0,0,0-.82-.8c-.5-.35-1-.68-1.52-1s-.9-.6-1.33-.93a6.3,6.3,0,0,1-.86-.77,4.35,4.35,0,0,1-1.18-4.31,4.82,4.82,0,0,1,4.14-3.78,5.77,5.77,0,0,1,2.48.14,4.52,4.52,0,0,1,3.28,3.84,4.93,4.93,0,0,1,.05,1.15.18.18,0,0,1-.16.18l-.27,0h-3.06A1.85,1.85,0,0,1,443.18,456.55Z" transform="translate(-367.54 -442.06)"/><path class="cls-2" d="M426.37,459.84V452c0-.45,0-.46.46-.46h8.28a1.27,1.27,0,0,1,.34,0c.05,0,.1.08.12.13a.49.49,0,0,1,0,.21c0,1,0,1.94,0,2.91,0,.31,0,.35-.35.35h-3.6c-.21,0-.41,0-.61,0s-.31,0-.31.33c0,.72,0,1.45,0,2.17,0,.35,0,.37.4.37.66,0,1.32,0,2,0h.48c.23,0,.29.06.29.27,0,.88,0,1.76,0,2.65a.19.19,0,0,1-.21.2h-2c-1,0-.88-.14-.89.9q0,.92,0,1.83c0,.26.07.32.33.32h4.2c.29,0,.34.05.34.3,0,1.09,0,2.17,0,3.26,0,.22-.06.27-.29.28h-8.62c-.26,0-.3-.05-.31-.33v-8Z" transform="translate(-367.54 -442.06)"/><path class="cls-2" d="M455,461.68v5.7c0,.18,0,.36,0,.55a.2.2,0,0,1-.17.18H451c-.23,0-.28-.06-.29-.27s0-.41,0-.61V456c0-.85.09-.77-.75-.77h-2c-.23,0-.28-.05-.29-.27,0-1,0-2.08,0-3.12,0-.23.05-.27.28-.29h9.5c.59,0,.6,0,.6.59,0,.92,0,1.85,0,2.78,0,.28,0,.31-.31.31h-2.44c-.16,0-.26.07-.26.24s0,.36,0,.54Z" transform="translate(-367.54 -442.06)"/><path class="cls-4" d="M509.74,456.25v-1.69c0-.15.07-.26.24-.26h.88c.48,0,.68.23.73.72,0,.14,0,.27,0,.41,0,.59,0,1.17,0,1.76a3.65,3.65,0,0,1,0,.47.62.62,0,0,1-.6.62l-.21,0c-1.21,0-1,.18-1-1,0-.36,0-.72,0-1.09Z" transform="translate(-367.54 -442.06)"/><path class="cls-4" d="M498.63,462.44c-.61,0-1.12,0-1.63,0a47.08,47.08,0,0,1,.91-5.46C498.15,458.84,498.38,460.6,498.63,462.44Z" transform="translate(-367.54 -442.06)"/></svg>